PathFileType	4	(X/Y/Z)	/Users/itak/Documents/Research/Walk-IL/dataset/trc/00107_00007.trc
DataRate	CameraRate	NumFrames	NumMarkers	Units	OrigDataRate	OrigDataStartFrame	OrigNumFrames
100.000000	100.000000	4	53	mm	100.000000	140	561
Frame#	Time	RPSI			LPSI			L3			STRN			T10			C7			CLAV			RBAK			LBAK			LSHO			LUPA			LAEL			LAOL			LWTS			LWPS			LFRA			LIFD			LHPS			LHTS			RSHO			RUPA			RAEL			RAOL			RWTS			RWPS			RFRA			RIFD			RHTS			RHPS			RBHD			LFHD			RFHD			LBHD			LHIP			RHIP			RASI			LASI			LKNE			LTHI			LANK			LTIP			LTOE			LMT1			LMT5			LHEE			RKNE			RTHI			RANK			RTIP			RTOE			RMT1			RMT5			RHEE			
		X1	Y1	Z1	X2	Y2	Z2	X3	Y3	Z3	X4	Y4	Z4	X5	Y5	Z5	X6	Y6	Z6	X7	Y7	Z7	X8	Y8	Z8	X9	Y9	Z9	X10	Y10	Z10	X11	Y11	Z11	X12	Y12	Z12	X13	Y13	Z13	X14	Y14	Z14	X15	Y15	Z15	X16	Y16	Z16	X17	Y17	Z17	X18	Y18	Z18	X19	Y19	Z19	X20	Y20	Z20	X21	Y21	Z21	X22	Y22	Z22	X23	Y23	Z23	X24	Y24	Z24	X25	Y25	Z25	X26	Y26	Z26	X27	Y27	Z27	X28	Y28	Z28	X29	Y29	Z29	X30	Y30	Z30	X31	Y31	Z31	X32	Y32	Z32	X33	Y33	Z33	X34	Y34	Z34	X35	Y35	Z35	X36	Y36	Z36	X37	Y37	Z37	X38	Y38	Z38	X39	Y39	Z39	X40	Y40	Z40	X41	Y41	Z41	X42	Y42	Z42	X43	Y43	Z43	X44	Y44	Z44	X45	Y45	Z45	X46	Y46	Z46	X47	Y47	Z47	X48	Y48	Z48	X49	Y49	Z49	X50	Y50	Z50	X51	Y51	Z51	X52	Y52	Z52	X53	Y53	Z53	

141	1.4	-1897.608032226562	1121.214111328125	-250.3450164794922	-1893.95751953125	1123.921752929688	-385.6512756347656	-1902.399658203125	1156.779907226562	-321.0089111328125	-1684.430053710938	1354.7158203125	-314.4740295410156	-1938.782958984375	1307.978759765625	-323.8106689453125	-1897.041870117188	1599.421875	-339.2512512207031	-1718.403930664062	1490.077026367188	-320.9689025878906	-1960.52880859375	1417.510375976562	-253.1640930175781	-1900.561767578125	1578.472045898438	-441.4471740722656	-1810.962036132812	1562.439575195312	-505.0711669921875	-1826.714599609375	1430.209228515625	-575.1543579101562	-1808.3251953125	1210.145629882812	-592.9218139648438	-1879.51708984375	1197.767456054688	-542.8331298828125	-1709.307006835938	955.0877075195312	-536.237548828125	-1787.436889648438	927.75390625	-570.124755859375	-1789.972778320312	1094.38525390625	-593.4540405273438	-1702.103393554688	760.8884887695312	-509.5729675292969	-1757.27685546875	853.2791748046875	-566.7427368164062	-1691.781982421875	865.2198486328125	-543.8772583007812	-1851.498291015625	1582.000122070312	-154.9169769287109	-1872.786010742188	1508.704467773438	-92.34684753417969	-1885.794677734375	1212.363159179688	-75.81394958496094	-1885.263671875	1212.555541992188	-173.6195526123047	-1734.762573242188	972.3786010742188	-81.09906768798828	-1812.293701171875	953.652587890625	-56.41477966308594	-1862.7060546875	1139.076171875	-59.81750106811523	-1706.869140625	779.2536010742188	-105.9777297973633	-1704.000366210938	863.4469604492188	-76.75914001464844	-1774.841552734375	853.9061889648438	-51.71432113647461	-1864.300659179688	1767.52197265625	-259.7702941894531	-1704.037963867188	1840.322631835938	-393.7116088867188	-1704.12548828125	1846.595458984375	-264.1433410644531	-1870.997680664062	1764.80712890625	-394.9220581054688	-1800.718383789062	1036.021118164062	-493.4823303222656	-1774.614013671875	1022.956298828125	-129.4798431396484	-1692.162963867188	1097.533569335938	-180.6976623535156	-1693.935180664062	1098.113525390625	-447.41015625	-1754.895629882812	530.1226806640625	-466.5931396484375	-1780.836059570312	677.9306640625	-493.1592712402344	-1913.684448242188	36.62058258056641	-472.194091796875	-1877.408935546875	290.0303955078125	-499.9278564453125	-1686.4267578125	38.43594741821289	-407.0909729003906	-1767.482421875	42.41560363769531	-376.4354858398438	-1786.901611328125	32.04778671264648	-495.3905944824219	-1984.554809570312	39.53750991821289	-411.3193359375	-1769.822875976562	529.35107421875	-184.3033294677734	-1750.514892578125	808.0464477539062	-143.4745635986328	-1922.986206054688	28.18461990356445	-200.7803039550781	-1804.715942382812	394.4050903320312	-173.5638122558594	-1694.137084960938	47.09020614624023	-256.475830078125	-1752.8916015625	34.82913970947266	-298.6168212890625	-1789.121826171875	37.64450454711914	-182.6358489990234	-1981.04248046875	31.31494522094727	-248.4454650878906	
142	1.41	-1896.863891601562	1121.18212890625	-249.25537109375	-1893.265014648438	1123.68896484375	-384.5967407226562	-1901.65576171875	1156.735107421875	-319.8915100097656	-1683.145385742188	1354.287475585938	-313.3334655761719	-1937.3369140625	1308.096313476562	-322.4091186523438	-1895.049072265625	1599.524658203125	-337.7708435058594	-1716.756958007812	1489.787719726562	-319.8018493652344	-1958.9140625	1417.797241210938	-251.4767150878906	-1898.833618164062	1578.5625	-439.9508361816406	-1809.384521484375	1562.328125	-503.7109375	-1825.622680664062	1430.189086914062	-573.7532958984375	-1808.17919921875	1210.241333007812	-592.0110473632812	-1879.235473632812	1197.935791015625	-541.6972045898438	-1708.999267578125	955.1917114257812	-535.9508666992188	-1787.28759765625	927.8217163085938	-569.4296875	-1789.956298828125	1094.446166992188	-592.7306518554688	-1701.593994140625	760.9711303710938	-509.3483276367188	-1757.11962890625	853.3607788085938	-566.1707763671875	-1691.493286132812	865.276123046875	-543.5413818359375	-1849.123168945312	1582.057983398438	-153.5308380126953	-1870.4423828125	1508.857177734375	-90.88695526123047	-1884.092163085938	1212.531127929688	-74.05092620849609	-1884.0791015625	1212.697998046875	-171.8221893310547	-1733.101318359375	972.4949340820312	-80.03185272216797	-1810.595092773438	953.7581176757812	-54.95291519165039	-1861.02587890625	1139.208251953125	-58.14414978027344	-1705.610961914062	779.291748046875	-105.095588684082	-1702.444213867188	863.4589233398438	-75.86506652832031	-1773.254028320312	853.9984741210938	-50.43918609619141	-1861.958129882812	1767.363647460938	-258.3820190429688	-1701.998413085938	1840.050537109375	-392.7479858398438	-1701.761352539062	1846.376953125	-263.1650695800781	-1868.946044921875	1764.584594726562	-393.5048217773438	-1799.845458984375	1035.77099609375	-492.5412292480469	-1774.170776367188	1022.800048828125	-128.2076568603516	-1691.39990234375	1097.198120117188	-179.4755706787109	-1693.279663085938	1097.805297851562	-446.1350708007812	-1749.979736328125	529.512451171875	-465.1309204101562	-1777.044921875	677.3538818359375	-491.7162475585938	-1913.538330078125	37.22818756103516	-471.9595336914062	-1874.905639648438	290.1899108886719	-498.9755249023438	-1686.260375976562	38.36006164550781	-407.0155639648438	-1767.351684570312	42.4389533996582	-376.4417724609375	-1786.879638671875	32.07566070556641	-495.338623046875	-1984.451293945312	40.52335357666016	-411.1459045410156	-1770.042846679688	529.26318359375	-183.4354553222656	-1749.9677734375	807.9478759765625	-142.3697967529297	-1923.081665039062	28.00053215026855	-200.5912475585938	-1804.89404296875	394.3023986816406	-172.7643432617188	-1694.342651367188	46.96374893188477	-256.7162780761719	-1753.104370117188	34.86828231811523	-298.7474670410156	-1789.142944335938	37.53448867797852	-182.6578216552734	-1981.18505859375	31.19962120056152	-248.1457824707031	
143	1.42	-1896.145751953125	1121.13427734375	-248.1744232177734	-1892.618286132812	1123.439575195312	-383.5530700683594	-1900.9482421875	1156.686279296875	-318.7811279296875	-1681.829223632812	1353.810913085938	-312.207763671875	-1935.814697265625	1308.240966796875	-320.9267272949219	-1892.965209960938	1599.644165039062	-336.2615966796875	-1715.055053710938	1489.45654296875	-318.6432189941406	-1957.231567382812	1418.13330078125	-249.7323303222656	-1897.037353515625	1578.667358398438	-438.4180908203125	-1807.757080078125	1562.201904296875	-502.3441772460938	-1824.553833007812	1430.166015625	-572.3418579101562	-1808.135375976562	1210.325439453125	-591.1161499023438	-1879.03515625	1198.102294921875	-540.5558471679688	-1708.706909179688	955.3184204101562	-535.6491088867188	-1787.164794921875	927.8942260742188	-568.7171020507812	-1790.033569335938	1094.499389648438	-592.0158081054688	-1701.008666992188	761.087158203125	-509.1123046875	-1756.917358398438	853.4461059570312	-565.5638427734375	-1691.18505859375	865.37841796875	-543.1993408203125	-1846.61328125	1582.1240234375	-152.125732421875	-1867.945434570312	1509.01806640625	-89.398681640625	-1882.245483398438	1212.715576171875	-72.18154144287109	-1882.821899414062	1212.835327148438	-169.9076995849609	-1731.283569335938	972.650390625	-78.92458343505859	-1808.710571289062	953.8856811523438	-53.40039825439453	-1859.190673828125	1139.356323242188	-56.369384765625	-1704.173461914062	779.3678588867188	-104.1496429443359	-1700.716186523438	863.5310668945312	-74.92823791503906	-1771.465942382812	854.123291015625	-49.07364654541016	-1859.520263671875	1767.154296875	-256.932861328125	-1699.919189453125	1839.790893554688	-391.74658203125	-1699.313842773438	1846.138671875	-262.1483764648438	-1866.82373046875	1764.329833984375	-392.0258483886719	-1798.96630859375	1035.490966796875	-491.5730590820312	-1773.742431640625	1022.644958496094	-126.9535522460938	-1690.644409179688	1096.835205078125	-178.2576446533203	-1692.634765625	1097.488891601562	-444.860595703125	-1744.632568359375	528.9385986328125	-463.5969848632812	-1772.927124023438	676.8026733398438	-490.1768798828125	-1913.361572265625	38.02703475952148	-471.7119445800781	-1872.139892578125	290.5338439941406	-497.9393615722656	-1686.063842773438	38.27544403076172	-406.9166564941406	-1767.186767578125	42.47265243530273	-376.4535522460938	-1786.848266601562	32.12080001831055	-495.260986328125	-1984.310668945312	41.82873916625977	-410.9384460449219	-1770.264770507812	529.1649780273438	-182.5543212890625	-1749.498046875	807.8341064453125	-141.2534790039062	-1923.16748046875	27.83783912658691	-200.4199676513672	-1805.048706054688	394.1814270019531	-171.9831390380859	-1694.5185546875	46.81365203857422	-256.9530944824219	-1753.31689453125	34.87038040161133	-298.8725891113281	-1789.160522460938	37.43783187866211	-182.6756439208984	-1981.3125	31.0910530090332	-247.857421875	
144	1.43	-1895.455078125	1121.069091796875	-247.1030731201172	-1892.019775390625	1123.1826171875	-382.5186462402344	-1900.281372070312	1156.641845703125	-317.6764831542969	-1680.480712890625	1353.295166015625	-311.1014099121094	-1934.218383789062	1308.428100585938	-319.3580322265625	-1890.790283203125	1599.78466796875	-334.7328491210938	-1713.298217773438	1489.079956054688	-317.5008544921875	-1955.484375	1418.521362304688	-247.9404754638672	-1895.169921875	1578.793090820312	-436.8599548339844	-1806.07861328125	1562.060913085938	-500.9790954589844	-1823.5107421875	1430.143798828125	-570.9360961914062	-1808.182983398438	1210.394897460938	-590.2406005859375	-1878.912475585938	1198.265991210938	-539.4202270507812	-1708.42919921875	955.4602661132812	-535.313720703125	-1787.066772460938	927.9669189453125	-567.9957275390625	-1790.188232421875	1094.543701171875	-591.308837890625	-1700.348510742188	761.2340087890625	-508.8625183105469	-1756.670654296875	853.5325317382812	-564.9325561523438	-1690.864379882812	865.528564453125	-542.8528442382812	-1843.980590820312	1582.199584960938	-150.7104339599609	-1865.31103515625	1509.186157226562	-87.8936767578125	-1880.248046875	1212.913818359375	-70.21286010742188	-1881.477294921875	1212.964599609375	-167.8851928710938	-1729.31689453125	972.8356323242188	-77.77392578125	-1806.63818359375	954.037353515625	-51.76156234741211	-1857.186401367188	1139.51806640625	-54.50325393676758	-1702.54833984375	779.4796142578125	-103.1398239135742	-1698.812255859375	863.6591796875	-73.95022583007812	-1769.469116210938	854.277587890625	-47.6220588684082	-1856.984497070312	1766.8955078125	-255.4297332763672	-1697.792846679688	1839.54833984375	-390.7107543945312	-1696.781494140625	1845.889404296875	-261.1009826660156	-1864.628784179688	1764.043823242188	-390.494384765625	-1798.081787109375	1035.196166992188	-490.5811462402344	-1773.30322265625	1022.492980957031	-125.7233963012695	-1689.89501953125	1096.446044921875	-177.0460815429688	-1692.009155273438	1097.174682617188	-443.5874633789062	-1738.836669921875	528.4419555664062	-461.9940490722656	-1768.474853515625	676.3130493164062	-488.5441589355469	-1913.148193359375	39.07180786132812	-471.4682312011719	-1869.106689453125	291.1116943359375	-496.8309631347656	-1685.850341796875	38.18296432495117	-406.8044738769531	-1766.989135742188	42.51957321166992	-376.4751892089844	-1786.799926757812	32.18423843383789	-495.1504821777344	-1984.112426757812	43.52025985717773	-410.6980590820312	-1770.475341796875	529.05224609375	-181.6779937744141	-1749.098510742188	807.6998901367188	-140.1417999267578	-1923.23974609375	27.69597053527832	-200.2716217041016	-1805.17529296875	394.0369262695312	-171.2354583740234	-1694.656372070312	46.62951278686523	-257.1807250976562	-1753.527954101562	34.82476043701172	-298.9925537109375	-1789.17431640625	37.35714340209961	-182.6924438476562	-1981.424438476562	30.98693466186523	-247.5912475585938	
